<svg xmlns:xlink="http://www.w3.org/1999/xlink" width="40" xmlns="http://www.w3.org/2000/svg" height="40" id="screenshot-d176f164-198b-8020-8002-ec7c40e1ff05" viewBox="193 4 40 40" style="-webkit-print-color-adjust: exact;" fill="none" version="1.1"><g id="shape-d176f164-198b-8020-8002-ec7c40e1ff05"><g class="fills" id="fills-d176f164-198b-8020-8002-ec7c40e1ff05"><path rx="0" ry="0" d="M193.000,44.000L200.273,44.000L200.273,25.821L203.909,25.821L203.909,44.000L211.182,44.000L211.182,14.913L214.818,14.913L214.818,44.000L233.000,44.000L233.000,25.821L231.182,25.821L231.182,22.185L233.000,22.185L233.000,4.000L214.818,4.006L214.818,11.277L211.182,11.277L211.182,4.006L203.909,4.006L203.909,22.185L200.273,22.185L200.273,4.006C200.273,4.006,193.000,4.000,193.000,4.000L193.000,44.000ZM222.091,25.821L225.727,25.821L225.727,40.364L222.091,40.364L222.091,25.821ZM222.091,7.642L225.727,7.642L225.727,22.185L222.091,22.185L222.091,7.642Z" style="fill: rgb(255, 255, 255); fill-opacity: 1;"/></g></g></svg>