<svg xmlns:xlink="http://www.w3.org/1999/xlink" width="40" xmlns="http://www.w3.org/2000/svg" height="40" id="screenshot-d176f164-198b-8020-8002-ec80bde32baa" viewBox="193 -72 40 40" style="-webkit-print-color-adjust: exact;" fill="none" version="1.1"><g id="shape-d176f164-198b-8020-8002-ec80bde32baa"><g class="fills" id="fills-d176f164-198b-8020-8002-ec80bde32baa"><path rx="0" ry="0" d="M193.000,-71.994L193.000,-32.000L200.273,-32.000L200.273,-50.179L203.909,-50.179L203.909,-32.000L211.182,-32.000L211.182,-61.087L214.818,-61.087L214.818,-32.000L233.000,-32.000L233.000,-50.179L231.182,-50.179L231.182,-53.815L233.000,-53.815L233.000,-72.000L214.818,-71.994L214.818,-64.723L211.182,-64.723L211.182,-71.994L203.909,-71.994L203.909,-53.815L200.273,-53.815L200.273,-71.994L193.000,-71.994ZM222.091,-50.179L225.727,-50.179L225.727,-35.636L222.091,-35.636L222.091,-50.179ZM222.091,-68.358L225.727,-68.358L225.727,-53.815L222.091,-53.815L222.091,-68.358Z" style="fill: rgb(0, 0, 0); fill-opacity: 1;"/></g></g></svg>